<svg xmlns="http://www.w3.org/2000/svg" xmlns:xlink="http://www.w3.org/1999/xlink" width="73" height="72" viewBox="0 0 73 72">
  <defs>
    <rect id="-iteration-a" width="96" height="86"/>
    <linearGradient id="-iteration-d" x1="12.269%" x2="95.741%" y1="54.442%" y2="46.56%">
      <stop offset="0%" stop-color="#FFF" stop-opacity=".798"/>
      <stop offset="100%"/>
    </linearGradient>
    <path id="-iteration-c" d="M59.2857304,20.1657744 C58.109145,20.1662325 57.1063135,19.2192513 57.1184914,18.0306073 C57.1475149,15.1977252 61.9665493,15.8468773 62.1932953,15.7994596 C66.557477,15.7023337 69.6759158,12.1964081 69.6759158,7.87934355 C69.6759158,3.58174997 66.1379968,0.0607057414 61.8647403,0.0620801651 L22.488017,0.0788023191 C18.2145337,0.0801767427 14.8033657,3.61588149 14.8033657,7.93294607 C14.8033657,12.2062582 18.0979862,15.7023337 22.3712427,15.7023337 C22.8258686,16.1604749 23.6605209,16.374885 23.6609744,17.8938522 C23.6612011,18.6600933 23.4489668,19.1475556 23.1750576,19.4826859 C22.8118104,19.9273119 22.2508406,20.157986 21.6801207,20.1589023 L8.46173153,20.1712721 C4.188475,20.1726465 0.745109114,23.6767395 0.745109114,27.9938041 C0.745109114,32.3413351 4.25014994,35.8811631 8.53429027,35.8797887 L21.8535814,35.8768107 C22.9065902,35.8763526 23.7913534,36.7204778 23.8020105,37.7840526 C23.8026907,39.6280709 22.5127323,39.8818812 22.2859862,39.9292988 L17.7510647,40.2128882 C13.5707741,40.2128882 10.0757101,43.6203134 10.0770706,47.937378 C10.078431,52.2546716 13.5759892,55.7218843 17.8492458,55.7205098 L58.442235,55.6769864 C62.7154915,55.675612 66.2107823,52.2594821 66.2094218,47.9424175 C66.2080613,43.6253529 62.7105031,40.2128882 58.4372466,40.2128882 C57.9826207,39.9838176 57.1481952,39.5256764 57.1475149,38.0067092 C57.157265,36.8354712 58.096674,35.9315586 59.2204276,35.9276644 L72.0281796,35.8946783 C76.3014361,35.8933038 79.6527431,32.2875035 79.6527431,27.9704389 C79.6527431,23.6728453 76.2964477,20.1614221 72.0231912,20.1627965 L59.2857304,20.1657744 Z"/>
    <path id="-iteration-f" d="M44.8496989,42.9113794 C40.7275294,47.5659083 34.7064116,50.5 28,50.5 C20.7852582,50.5 14.3636347,47.1042567 10.2462074,41.8238478 L12.6139787,39.9814362 C16.1824395,44.5573517 21.7475736,47.5 28,47.5 C33.6666244,47.5 38.7687108,45.0829255 42.3315086,41.2235273 L38.6710732,38.7700694 L46.8595366,37.1667139 L48.4683415,45.336825 L44.8496989,42.9113794 Z M10.6731887,13.6452645 C14.8002883,8.66923319 21.0300371,5.5 28,5.5 C35.2199892,5.5 41.6457059,8.90068463 45.7627729,14.1876767 L43.3950016,16.0300883 C39.8269011,11.4475896 34.2576738,8.5 28,8.5 C22.1092289,8.5 16.8285403,11.112074 13.2529913,15.241165 L17.0303171,17.5778694 L8.90690244,19.4786917 L7,11.3729806 L10.6731887,13.6452645 Z"/>
    <circle id="-iteration-h" cx="12" cy="12" r="12"/>
    <polygon id="-iteration-j" points="7.889 11.603 3.549 13.885 4.378 9.051 .866 5.628 5.719 4.923 7.889 .526 10.06 4.923 14.913 5.628 11.401 9.051 12.23 13.885"/>
  </defs>
  <g id="Icon---Sets-03" fill="none" fill-rule="evenodd" transform="translate(-902 -303)">
    <g id="icon" transform="translate(890 296)">
      <g id="Sets-/-Various-/-Iteration">
        <g id="Assets-/-Background">
          <g id="Group">
            <mask id="-iteration-b" fill="#fff">
              <use xlink:href="#-iteration-a"/>
            </mask>
            <g id="background" mask="url(#-iteration-b)" opacity=".35">
              <g transform="rotate(-27 75.24 18.839)">
                <mask id="-iteration-e" fill="#fff">
                  <use xlink:href="#-iteration-c"/>
                </mask>
                <use id="Fill-1" fill="url(#-iteration-d)" xlink:href="#-iteration-c"/>
                <g id="Colors-/-Base-/-Blue-/-1.6-Blue" mask="url(#-iteration-e)" style="mix-blend-mode:screen">
                  <rect id="Colors-/-1.6-Blue" width="96" height="86" fill="#D9E4FF" transform="translate(-8 -15)"/>
                </g>
              </g>
            </g>
          </g>
        </g>
        <g transform="translate(20 15)">
          <g id="Group-10">
            <mask id="-iteration-g" fill="#fff">
              <use xlink:href="#-iteration-f"/>
            </mask>
            <use id="Combined-Shape" fill="#9DB8FA" fill-rule="nonzero" xlink:href="#-iteration-f"/>
            <g id="Colors-/-Base-/-Blue-/-1.5-Blue" fill="#9DB8FA" mask="url(#-iteration-g)">
              <rect id="Colors-/-1.5-Blue" width="56" height="56" transform="translate(.354 .108)"/>
            </g>
          </g>
          <g transform="translate(16 16)">
            <mask id="-iteration-i" fill="#fff">
              <use xlink:href="#-iteration-h"/>
            </mask>
            <use id="Oval-3" fill="#4A47D5" xlink:href="#-iteration-h"/>
            <g id="Colors-/-Base-/-Blue-/-1.1-Blue" fill="#4A47D5" mask="url(#-iteration-i)">
              <rect id="Colors-/-1.1-Blue" width="56" height="56" transform="translate(-15.646 -15.892)"/>
            </g>
          </g>
          <g id="Group-9" transform="translate(20 20)">
            <mask id="-iteration-k" fill="#fff">
              <use xlink:href="#-iteration-j"/>
            </mask>
            <use id="Star" fill="#D9E4FF" xlink:href="#-iteration-j"/>
            <g fill="#D9E4FF" mask="url(#-iteration-k)">
              <rect width="56" height="56" transform="translate(-19.646 -19.892)"/>
            </g>
          </g>
        </g>
      </g>
    </g>
  </g>
</svg>
