<svg xmlns="http://www.w3.org/2000/svg" xmlns:xlink="http://www.w3.org/1999/xlink" width="73" height="72" viewBox="0 0 73 72">
  <defs>
    <rect id="fun-a" width="96" height="86"/>
    <linearGradient id="fun-d" x1="12.269%" x2="95.741%" y1="54.442%" y2="46.56%">
      <stop offset="0%" stop-color="#FFF" stop-opacity=".798"/>
      <stop offset="100%"/>
    </linearGradient>
    <path id="fun-c" d="M59.2857304,20.1657744 C58.109145,20.1662325 57.1063135,19.2192513 57.1184914,18.0306073 C57.1475149,15.1977252 61.9665493,15.8468773 62.1932953,15.7994596 C66.557477,15.7023337 69.6759158,12.1964081 69.6759158,7.87934355 C69.6759158,3.58174997 66.1379968,0.0607057414 61.8647403,0.0620801651 L22.488017,0.0788023191 C18.2145337,0.0801767427 14.8033657,3.61588149 14.8033657,7.93294607 C14.8033657,12.2062582 18.0979862,15.7023337 22.3712427,15.7023337 C22.8258686,16.1604749 23.6605209,16.374885 23.6609744,17.8938522 C23.6612011,18.6600933 23.4489668,19.1475556 23.1750576,19.4826859 C22.8118104,19.9273119 22.2508406,20.157986 21.6801207,20.1589023 L8.46173153,20.1712721 C4.188475,20.1726465 0.745109114,23.6767395 0.745109114,27.9938041 C0.745109114,32.3413351 4.25014994,35.8811631 8.53429027,35.8797887 L21.8535814,35.8768107 C22.9065902,35.8763526 23.7913534,36.7204778 23.8020105,37.7840526 C23.8026907,39.6280709 22.5127323,39.8818812 22.2859862,39.9292988 L17.7510647,40.2128882 C13.5707741,40.2128882 10.0757101,43.6203134 10.0770706,47.937378 C10.078431,52.2546716 13.5759892,55.7218843 17.8492458,55.7205098 L58.442235,55.6769864 C62.7154915,55.675612 66.2107823,52.2594821 66.2094218,47.9424175 C66.2080613,43.6253529 62.7105031,40.2128882 58.4372466,40.2128882 C57.9826207,39.9838176 57.1481952,39.5256764 57.1475149,38.0067092 C57.157265,36.8354712 58.096674,35.9315586 59.2204276,35.9276644 L72.0281796,35.8946783 C76.3014361,35.8933038 79.6527431,32.2875035 79.6527431,27.9704389 C79.6527431,23.6728453 76.2964477,20.1614221 72.0231912,20.1627965 L59.2857304,20.1657744 Z"/>
    <path id="fun-f" d="M0,-5.68434189e-14 L9.28027714,25.4198896 C9.47019942,25.9401115 10.045885,26.2078722 10.5661069,26.0179499 C10.8438943,25.9165355 11.0627529,25.6976769 11.1641673,25.4198896 L20.4444444,-5.68434189e-14 L0,-5.68434189e-14 Z"/>
    <path id="fun-h" d="M8,3 L17.2802771,28.4198896 C17.4701994,28.9401115 18.045885,29.2078722 18.5661069,29.0179499 C18.8438943,28.9165355 19.0627529,28.6976769 19.1641673,28.4198896 L28.4444444,3 L8,3 Z"/>
    <path id="fun-j" d="M0,25.9644661 L20.4444444,16.9644661 L20.4444444,21 L0,30 L0,25.9644661 Z M0,17.9644661 L20.4444444,8.96446609 L20.4444444,13 L0,22 L0,17.9644661 Z M0,9.96446609 L20.4444444,0.964466094 L20.4444444,5 L0,14 L0,9.96446609 Z"/>
    <path id="fun-l" d="M18.6906527,7.01427182 L19.8943564,7.01427182 C20.1704987,7.01427182 20.3943564,7.23812944 20.3943564,7.51427182 C20.3943564,7.79041419 20.1704987,8.01427182 19.8943564,8.01427182 L18.6906527,8.01427182 L18.6906527,9.21124151 C18.6906527,9.48738389 18.466795,9.71124151 18.1906527,9.71124151 C17.9145103,9.71124151 17.6906527,9.48738389 17.6906527,9.21124151 L17.6906527,8.01427182 L16.486949,8.01427182 C16.2108066,8.01427182 15.986949,7.79041419 15.986949,7.51427182 C15.986949,7.23812944 16.2108066,7.01427182 16.486949,7.01427182 L17.6906527,7.01427182 L17.6906527,5.81730212 C17.6906527,5.54115975 17.9145103,5.31730212 18.1906527,5.31730212 C18.466795,5.31730212 18.6906527,5.54115975 18.6906527,5.81730212 L18.6906527,7.01427182 Z M8.82028228,34.4688173 C7.99185516,34.4688173 7.32028228,33.7972444 7.32028228,32.9688173 C7.32028228,32.1403901 7.99185516,31.4688173 8.82028228,31.4688173 L30.9684304,31.4688173 C31.7968576,31.4688173 32.4684304,32.1403901 32.4684304,32.9688173 C32.4684304,33.7972444 31.7968576,34.4688173 30.9684304,34.4688173 L8.82028228,34.4688173 Z M10.3202823,23.7415445 C9.21571279,23.7415445 8.32028228,22.846114 8.32028228,21.7415445 C8.32028228,20.636975 9.21571279,19.7415445 10.3202823,19.7415445 C11.4248518,19.7415445 12.3202823,20.636975 12.3202823,21.7415445 C12.3202823,22.846114 11.4248518,23.7415445 10.3202823,23.7415445 Z M10.3202823,22.7415445 C10.872567,22.7415445 11.3202823,22.2938293 11.3202823,21.7415445 C11.3202823,21.1892598 10.872567,20.7415445 10.3202823,20.7415445 C9.76799753,20.7415445 9.32028228,21.1892598 9.32028228,21.7415445 C9.32028228,22.2938293 9.76799753,22.7415445 10.3202823,22.7415445 Z M27.7091712,12.0597264 C27.1568864,12.0597264 26.7091712,11.6120111 26.7091712,11.0597264 C26.7091712,10.5074416 27.1568864,10.0597264 27.7091712,10.0597264 C28.2614559,10.0597264 28.7091712,10.5074416 28.7091712,11.0597264 C28.7091712,11.6120111 28.2614559,12.0597264 27.7091712,12.0597264 Z"/>
    <path id="fun-n" d="M2.32721925,16.1219179 C1.92785005,16.5033922 1.29485128,16.4888856 0.913376922,16.0895164 C0.531902567,15.6901472 0.54640921,15.0571484 0.945778415,14.675674 C3.28919801,12.4372579 5.25562547,10.0649078 6.84688515,7.55837029 C8.4179608,5.08362644 9.37095351,2.87547941 9.7163323,0.944844068 C9.81358865,0.401190091 10.3331491,0.0393133153 10.8768031,0.136569667 C11.4204571,0.233826019 11.7823339,0.753386496 11.6850775,1.29704047 C11.2889407,3.51140846 10.2355484,5.95218803 8.53536953,8.63029403 C6.85537472,11.2766063 4.78538317,13.7738988 2.32721925,16.1219179 Z M5.52247013,20.0273473 C5.08328086,20.3622073 4.45578993,20.2776318 4.12092992,19.8384425 C3.7860699,19.3992532 3.87064547,18.7717623 4.30983474,18.4369023 C6.24259627,16.9632676 8.20396255,15.6969748 10.1939699,14.6386158 C12.2102789,13.5662686 13.9504325,12.8695498 15.4279981,12.552144 C15.9679646,12.4361501 16.4997256,12.7798479 16.6157195,13.3198144 C16.7317133,13.8597809 16.3880156,14.3915419 15.848049,14.5075358 C14.5752433,14.7809558 12.9990672,15.4120216 11.1330883,16.4044178 C9.24080763,17.4108021 7.37058948,18.618248 5.52247013,20.0273473 Z"/>
    <path id="fun-p" d="M47.5555556,28.1969697 C47.2794132,28.1969697 47.0555556,27.9731121 47.0555556,27.6969697 C47.0555556,27.4208273 47.2794132,27.1969697 47.5555556,27.1969697 L48.4074074,27.1969697 C48.6835498,27.1969697 48.9074074,27.4208273 48.9074074,27.6969697 C48.9074074,27.9731121 48.6835498,28.1969697 48.4074074,28.1969697 L47.5555556,28.1969697 Z M45,28.1969697 C44.7238576,28.1969697 44.5,27.9731121 44.5,27.6969697 C44.5,27.4208273 44.7238576,27.1969697 45,27.1969697 L45.8518519,27.1969697 C46.1279942,27.1969697 46.3518519,27.4208273 46.3518519,27.6969697 C46.3518519,27.9731121 46.1279942,28.1969697 45.8518519,28.1969697 L45,28.1969697 Z M46.2037037,26 C46.2037037,25.7238576 46.4275613,25.5 46.7037037,25.5 C46.9798461,25.5 47.2037037,25.7238576 47.2037037,26 L47.2037037,26.8484848 C47.2037037,27.1246272 46.9798461,27.3484848 46.7037037,27.3484848 C46.4275613,27.3484848 46.2037037,27.1246272 46.2037037,26.8484848 L46.2037037,26 Z M46.2037037,28.5454545 C46.2037037,28.2693122 46.4275613,28.0454545 46.7037037,28.0454545 C46.9798461,28.0454545 47.2037037,28.2693122 47.2037037,28.5454545 L47.2037037,29.3939394 C47.2037037,29.6700818 46.9798461,29.8939394 46.7037037,29.8939394 C46.4275613,29.8939394 46.2037037,29.6700818 46.2037037,29.3939394 L46.2037037,28.5454545 Z"/>
  </defs>
  <g id="Icon---Sets-03" fill="none" fill-rule="evenodd" transform="translate(-554 -303)">
    <g id="icon" transform="translate(542 296)">
      <g id="Sets-/-Various-/-Fun">
        <g id="Assets-/-Background">
          <g id="Group">
            <mask id="fun-b" fill="#fff">
              <use xlink:href="#fun-a"/>
            </mask>
            <g id="background" mask="url(#fun-b)" opacity=".35">
              <g transform="rotate(-27 75.24 18.839)">
                <mask id="fun-e" fill="#fff">
                  <use xlink:href="#fun-c"/>
                </mask>
                <use id="Fill-1" fill="url(#fun-d)" xlink:href="#fun-c"/>
                <g id="Colors-/-Base-/-Blue-/-1.6-Blue" mask="url(#fun-e)" style="mix-blend-mode:screen">
                  <rect id="Colors-/-1.6-Blue" width="96" height="86" fill="#D9E4FF" transform="translate(-8 -15)"/>
                </g>
              </g>
            </g>
          </g>
        </g>
        <g transform="translate(19 13)">
          <g id="Group-11" transform="rotate(50 -11.525 34.853)">
            <mask id="fun-g" fill="#fff">
              <use xlink:href="#fun-f"/>
            </mask>
            <g id="Group-4" mask="url(#fun-g)">
              <g transform="translate(-8 -3)">
                <mask id="fun-i" fill="#fff">
                  <use xlink:href="#fun-h"/>
                </mask>
                <use fill="#D9E4FF" xlink:href="#fun-h"/>
                <g mask="url(#fun-i)">
                  <rect width="56" height="56" fill="#D9E4FF" transform="translate(1.247 -19.213)"/>
                </g>
              </g>
            </g>
            <g id="Group-3" mask="url(#fun-g)">
              <g transform="translate(0 -6)">
                <mask id="fun-k" fill="#fff">
                  <use xlink:href="#fun-j"/>
                </mask>
                <use id="Combined-Shape" fill="#9DB8FA" xlink:href="#fun-j"/>
                <g id="Colors-/-Base-/-Blue-/-1.5-Blue" mask="url(#fun-k)">
                  <rect id="Colors-/-1.5-Blue" width="56" height="56" fill="#9DB8FA" transform="translate(-6.753 -16.213)"/>
                </g>
              </g>
            </g>
          </g>
          <g transform="rotate(50 30.06 41.379)">
            <mask id="fun-m" fill="#fff">
              <use xlink:href="#fun-l"/>
            </mask>
            <use fill="#4A47D5" fill-rule="nonzero" xlink:href="#fun-l"/>
            <g id="Colors-/-Base-/-Blue-/-1.1-Blue" fill="#4A47D5" mask="url(#fun-m)">
              <rect id="Colors-/-1.1-Blue" width="56" height="56" transform="translate(-19 2)"/>
            </g>
          </g>
          <g id="Group-2" transform="translate(32 8)">
            <mask id="fun-o" fill="#fff">
              <use xlink:href="#fun-n"/>
            </mask>
            <use fill="#7A97FF" fill-rule="nonzero" xlink:href="#fun-n"/>
            <g id="Colors-/-Base-/-Blue-/-1.4-Blue" fill="#7A97FF" mask="url(#fun-o)">
              <rect id="Colors-/-1.4-Blue" width="56" height="56" transform="translate(-30.646 -5.892)"/>
            </g>
          </g>
          <g id="Group-13" transform="translate(.946 1.23)">
            <mask id="fun-q" fill="#fff">
              <use xlink:href="#fun-p"/>
            </mask>
            <use fill="#5C6FFF" fill-rule="nonzero" transform="rotate(55 46.704 27.697)" xlink:href="#fun-p"/>
            <g id="Colors-/-Base-/-Blue-/-1.3-Blue" fill="#5C6FFF" mask="url(#fun-q)">
              <rect id="Colors-/-1.3-Blue" width="56" height="56" transform="translate(.407 .879)"/>
            </g>
          </g>
        </g>
      </g>
    </g>
  </g>
</svg>
