<svg xmlns="http://www.w3.org/2000/svg" xmlns:xlink="http://www.w3.org/1999/xlink" width="73" height="72" viewBox="0 0 73 72">
  <defs>
    <rect id="-growth-a" width="96" height="86"/>
    <linearGradient id="-growth-d" x1="12.269%" x2="95.741%" y1="54.442%" y2="46.56%">
      <stop offset="0%" stop-color="#FFF" stop-opacity=".798"/>
      <stop offset="100%"/>
    </linearGradient>
    <path id="-growth-c" d="M59.2857304,20.1657744 C58.109145,20.1662325 57.1063135,19.2192513 57.1184914,18.0306073 C57.1475149,15.1977252 61.9665493,15.8468773 62.1932953,15.7994596 C66.557477,15.7023337 69.6759158,12.1964081 69.6759158,7.87934355 C69.6759158,3.58174997 66.1379968,0.0607057414 61.8647403,0.0620801651 L22.488017,0.0788023191 C18.2145337,0.0801767427 14.8033657,3.61588149 14.8033657,7.93294607 C14.8033657,12.2062582 18.0979862,15.7023337 22.3712427,15.7023337 C22.8258686,16.1604749 23.6605209,16.374885 23.6609744,17.8938522 C23.6612011,18.6600933 23.4489668,19.1475556 23.1750576,19.4826859 C22.8118104,19.9273119 22.2508406,20.157986 21.6801207,20.1589023 L8.46173153,20.1712721 C4.188475,20.1726465 0.745109114,23.6767395 0.745109114,27.9938041 C0.745109114,32.3413351 4.25014994,35.8811631 8.53429027,35.8797887 L21.8535814,35.8768107 C22.9065902,35.8763526 23.7913534,36.7204778 23.8020105,37.7840526 C23.8026907,39.6280709 22.5127323,39.8818812 22.2859862,39.9292988 L17.7510647,40.2128882 C13.5707741,40.2128882 10.0757101,43.6203134 10.0770706,47.937378 C10.078431,52.2546716 13.5759892,55.7218843 17.8492458,55.7205098 L58.442235,55.6769864 C62.7154915,55.675612 66.2107823,52.2594821 66.2094218,47.9424175 C66.2080613,43.6253529 62.7105031,40.2128882 58.4372466,40.2128882 C57.9826207,39.9838176 57.1481952,39.5256764 57.1475149,38.0067092 C57.157265,36.8354712 58.096674,35.9315586 59.2204276,35.9276644 L72.0281796,35.8946783 C76.3014361,35.8933038 79.6527431,32.2875035 79.6527431,27.9704389 C79.6527431,23.6728453 76.2964477,20.1614221 72.0231912,20.1627965 L59.2857304,20.1657744 Z"/>
    <path id="-growth-f" d="M1,20 L3,20 C3.55228475,20 4,20.4477153 4,21 L4,23 C4,23.5522847 3.55228475,24 3,24 L1,24 C0.44771525,24 6.76353751e-17,23.5522847 0,23 L0,21 C-6.76353751e-17,20.4477153 0.44771525,20 1,20 Z M5.90909091,15 L8.09090909,15 C8.59298614,15 9,15.4070139 9,15.9090909 L9,23.0909091 C9,23.5929861 8.59298614,24 8.09090909,24 L5.90909091,24 C5.40701386,24 5,23.5929861 5,23.0909091 L5,15.9090909 C5,15.4070139 5.40701386,15 5.90909091,15 Z M11,10 L13,10 C13.5522847,10 14,10.4477153 14,11 L14,23 C14,23.5522847 13.5522847,24 13,24 L11,24 C10.4477153,24 10,23.5522847 10,23 L10,11 C10,10.4477153 10.4477153,10 11,10 Z M15.9090909,13 L18.0909091,13 C18.5929861,13 19,13.4070139 19,13.9090909 L19,23.0909091 C19,23.5929861 18.5929861,24 18.0909091,24 L15.9090909,24 C15.4070139,24 15,23.5929861 15,23.0909091 L15,13.9090909 C15,13.4070139 15.4070139,13 15.9090909,13 Z M21,10 L23,10 C23.5522847,10 24,10.4477153 24,11 L24,23 C24,23.5522847 23.5522847,24 23,24 L21,24 C20.4477153,24 20,23.5522847 20,23 L20,11 C20,10.4477153 20.4477153,10 21,10 Z M26,4 L28,4 C28.5522847,4 29,4.44771525 29,5 L29,23 C29,23.5522847 28.5522847,24 28,24 L26,24 C25.4477153,24 25,23.5522847 25,23 L25,5 C25,4.44771525 25.4477153,4 26,4 Z M31,0 L33,0 C33.5522847,-1.01453063e-16 34,0.44771525 34,1 L34,23 C34,23.5522847 33.5522847,24 33,24 L31,24 C30.4477153,24 30,23.5522847 30,23 L30,1 C30,0.44771525 30.4477153,1.01453063e-16 31,0 Z"/>
    <path id="-growth-h" d="M42.8390931,13.1118204 L40.7272727,11 L48.7272727,9 L46.7272727,17 L44.9617628,15.2344901 L30.9159812,30.3194697 C30.3350001,30.9434356 29.3514415,30.9583289 28.7518346,30.3522397 L25.3004161,26.8635087 L9.09302901,44.108353 C8.5256824,44.7120162 7.57639134,44.7414567 6.97272808,44.1741101 C6.36906483,43.6067635 6.33962438,42.6574724 6.90697099,42.0538092 L24.1796983,23.6754308 C24.761695,23.0561797 25.7414012,23.0436256 26.3390745,23.6477603 L29.7853842,27.1313273 L42.8390931,13.1118204 Z"/>
  </defs>
  <g id="Icon---Sets-03" fill="none" fill-rule="evenodd" transform="translate(-670 -303)">
    <g id="icon" transform="translate(658 296)">
      <g id="Sets-/-Various-/-Growth">
        <g id="Assets-/-Background">
          <g id="Group">
            <mask id="-growth-b" fill="#fff">
              <use xlink:href="#-growth-a"/>
            </mask>
            <g id="background" mask="url(#-growth-b)" opacity=".35">
              <g transform="rotate(-27 75.24 18.839)">
                <mask id="-growth-e" fill="#fff">
                  <use xlink:href="#-growth-c"/>
                </mask>
                <use id="Fill-1" fill="url(#-growth-d)" xlink:href="#-growth-c"/>
                <g id="Colors-/-Base-/-Blue-/-1.6-Blue" mask="url(#-growth-e)" style="mix-blend-mode:screen">
                  <rect id="Colors-/-1.6-Blue" width="96" height="86" fill="#D9E4FF" transform="translate(-8 -15)"/>
                </g>
              </g>
            </g>
          </g>
        </g>
        <g transform="translate(20 15)">
          <g id="Group-5" transform="translate(13 21)">
            <mask id="-growth-g" fill="#fff">
              <use xlink:href="#-growth-f"/>
            </mask>
            <use id="Combined-Shape" fill="#D9E4FF" xlink:href="#-growth-f"/>
            <g fill="#D9E4FF" mask="url(#-growth-g)">
              <rect width="56" height="56" transform="translate(-12.646 -20.892)"/>
            </g>
          </g>
          <g id="Group-6">
            <mask id="-growth-i" fill="#fff">
              <use xlink:href="#-growth-h"/>
            </mask>
            <use fill="#4A47D5" fill-rule="nonzero" xlink:href="#-growth-h"/>
            <g id="Colors-/-Base-/-Blue-/-1.1-Blue" fill="#4A47D5" mask="url(#-growth-i)">
              <rect id="Colors-/-1.1-Blue" width="56" height="56" transform="translate(.354 .108)"/>
            </g>
          </g>
        </g>
      </g>
    </g>
  </g>
</svg>
