<svg xmlns="http://www.w3.org/2000/svg" xmlns:xlink="http://www.w3.org/1999/xlink" width="73" height="72" viewBox="0 0 73 72">
  <defs>
    <rect id="-speedometer-a" width="96" height="86"/>
    <linearGradient id="-speedometer-d" x1="12.269%" x2="95.741%" y1="54.442%" y2="46.56%">
      <stop offset="0%" stop-color="#FFF" stop-opacity=".798"/>
      <stop offset="100%"/>
    </linearGradient>
    <path id="-speedometer-c" d="M59.2857304,20.1657744 C58.109145,20.1662325 57.1063135,19.2192513 57.1184914,18.0306073 C57.1475149,15.1977252 61.9665493,15.8468773 62.1932953,15.7994596 C66.557477,15.7023337 69.6759158,12.1964081 69.6759158,7.87934355 C69.6759158,3.58174997 66.1379968,0.0607057414 61.8647403,0.0620801651 L22.488017,0.0788023191 C18.2145337,0.0801767427 14.8033657,3.61588149 14.8033657,7.93294607 C14.8033657,12.2062582 18.0979862,15.7023337 22.3712427,15.7023337 C22.8258686,16.1604749 23.6605209,16.374885 23.6609744,17.8938522 C23.6612011,18.6600933 23.4489668,19.1475556 23.1750576,19.4826859 C22.8118104,19.9273119 22.2508406,20.157986 21.6801207,20.1589023 L8.46173153,20.1712721 C4.188475,20.1726465 0.745109114,23.6767395 0.745109114,27.9938041 C0.745109114,32.3413351 4.25014994,35.8811631 8.53429027,35.8797887 L21.8535814,35.8768107 C22.9065902,35.8763526 23.7913534,36.7204778 23.8020105,37.7840526 C23.8026907,39.6280709 22.5127323,39.8818812 22.2859862,39.9292988 L17.7510647,40.2128882 C13.5707741,40.2128882 10.0757101,43.6203134 10.0770706,47.937378 C10.078431,52.2546716 13.5759892,55.7218843 17.8492458,55.7205098 L58.442235,55.6769864 C62.7154915,55.675612 66.2107823,52.2594821 66.2094218,47.9424175 C66.2080613,43.6253529 62.7105031,40.2128882 58.4372466,40.2128882 C57.9826207,39.9838176 57.1481952,39.5256764 57.1475149,38.0067092 C57.157265,36.8354712 58.096674,35.9315586 59.2204276,35.9276644 L72.0281796,35.8946783 C76.3014361,35.8933038 79.6527431,32.2875035 79.6527431,27.9704389 C79.6527431,23.6728453 76.2964477,20.1614221 72.0231912,20.1627965 L59.2857304,20.1657744 Z"/>
    <path id="-speedometer-f" d="M22,30 C22,30 27.324512,32.3759117 37.9735361,37.1277352 C41.7088752,33.1848847 44,27.8600028 44,22 C44,9.8497355 34.1502645,0 22,0 C9.8497355,0 0,9.8497355 0,22 C0,27.819633 2.25966628,33.1114927 5.94947111,37.0460513 C16.6498237,32.3486838 22,30 22,30 Z"/>
    <circle id="-speedometer-h" cx="22" cy="22" r="22"/>
    <path id="-speedometer-j" d="M22,42 C27.568287,42 32.7667889,39.7156825 36.5216321,35.7522445 C40.0184961,32.0611172 42,27.1886786 42,22 C42,10.954305 33.045695,2 22,2 C10.954305,2 2,10.954305 2,22 C2,27.1531232 3.95426282,31.9947553 7.40833161,35.677941 C11.1671482,39.686089 16.3960267,42 22,42 Z M22,44 C15.6693685,44 9.96326277,41.3260876 5.94947111,37.0460513 C2.25966628,33.1114927 0,27.819633 0,22 C0,9.8497355 9.8497355,0 22,0 C34.1502645,0 44,9.8497355 44,22 C44,27.8600028 41.7088752,33.1848847 37.9735361,37.1277352 C33.9639374,41.3600814 28.2902617,44 22,44 Z"/>
    <path id="-speedometer-l" d="M32.01,9.702 C32.414,10.498 32.76,11.332 33.042,12.186 L28.136,14.398 C27.882,13.534 27.536,12.702 27.102,11.914 L32.01,9.702 Z M7.896,10.38 L4.118,6.442 C4.68,5.758 5.298,5.116 5.954,4.528 L9.734,8.466 C9.056,9.03 8.438,9.672 7.896,10.38 Z M11.326,7.35 L9.258,2.214 C10.03,1.802 10.834,1.45 11.654,1.166 L13.722,6.304 C12.888,6.558 12.084,6.908 11.326,7.35 Z M5.808,14.582 L0.87,12.45 C1.138,11.594 1.472,10.756 1.866,9.95 L6.804,12.082 C6.384,12.874 6.05,13.712 5.808,14.582 Z M24.676,2.182 L22.628,7.328 C21.868,6.888 21.062,6.54 20.228,6.29 L22.276,1.144 C23.096,1.424 23.902,1.772 24.676,2.182 Z M29.878,6.442 L26.098,10.38 C25.556,9.674 24.94,9.03 24.262,8.466 L28.042,4.528 C28.698,5.116 29.314,5.758 29.878,6.442 Z M18.296,0.324 L18.296,5.892 C17.866,5.84 17.43,5.816 16.998,5.816 C16.566,5.816 16.13,5.842 15.698,5.892 L15.698,0.324 C16.136,0.29 16.574,0.272 16.998,0.272 C17.422,0.272 17.858,0.288 18.296,0.324 Z"/>
    <path id="-speedometer-n" d="M28,44 C25.412,44 23.314,41.902 23.314,39.314 C23.314,37.548 24.292,36.01 25.734,35.212 L28,24 L30.266,35.21 C31.71,36.008 32.686,37.546 32.686,39.312 C32.686,41.902 30.588,44 28,44 Z"/>
  </defs>
  <g id="Icon---Sets-03" fill="none" fill-rule="evenodd" transform="translate(-786 -303)">
    <g id="icon" transform="translate(774 296)">
      <g id="Sets-/-Various-/-Speedometer">
        <g id="Assets-/-Background">
          <g id="Group">
            <mask id="-speedometer-b" fill="#fff">
              <use xlink:href="#-speedometer-a"/>
            </mask>
            <g id="background" mask="url(#-speedometer-b)" opacity=".35">
              <g transform="rotate(-27 75.24 18.839)">
                <mask id="-speedometer-e" fill="#fff">
                  <use xlink:href="#-speedometer-c"/>
                </mask>
                <use id="Fill-1" fill="url(#-speedometer-d)" xlink:href="#-speedometer-c"/>
                <g id="Colors-/-Base-/-Blue-/-1.6-Blue" mask="url(#-speedometer-e)" style="mix-blend-mode:screen">
                  <rect id="Colors-/-1.6-Blue" width="96" height="86" fill="#D9E4FF" transform="translate(-8 -15)"/>
                </g>
              </g>
            </g>
          </g>
        </g>
        <g transform="translate(20 15)">
          <g id="Group-8" transform="translate(6 10)">
            <mask id="-speedometer-g" fill="#fff">
              <use xlink:href="#-speedometer-f"/>
            </mask>
            <g id="Group-6" mask="url(#-speedometer-g)">
              <mask id="-speedometer-i" fill="#fff">
                <use xlink:href="#-speedometer-h"/>
              </mask>
              <use id="Oval-4" fill="#D9E4FF" xlink:href="#-speedometer-h"/>
              <g fill="#D9E4FF" mask="url(#-speedometer-i)">
                <rect width="56" height="56" transform="translate(-5.646 -9.892)"/>
              </g>
            </g>
            <g id="Group-5" mask="url(#-speedometer-g)">
              <mask id="-speedometer-k" fill="#fff">
                <use xlink:href="#-speedometer-j"/>
              </mask>
              <use fill="#4A47D5" fill-rule="nonzero" xlink:href="#-speedometer-j"/>
              <g id="Colors-/-Base-/-Blue-/-1.1-Blue" fill="#4A47D5" mask="url(#-speedometer-k)">
                <rect id="Colors-/-1.1-Blue" width="56" height="56" transform="translate(-5.646 -9.892)"/>
              </g>
            </g>
          </g>
          <g id="Group-7" transform="translate(11 15)">
            <mask id="-speedometer-m" fill="#fff">
              <use xlink:href="#-speedometer-l"/>
            </mask>
            <use id="Combined-Shape" fill="#7A97FF" xlink:href="#-speedometer-l"/>
            <g id="Colors-/-Base-/-Blue-/-1.4-Blue" fill="#7A97FF" mask="url(#-speedometer-m)">
              <rect id="Colors-/-1.4-Blue" width="56" height="56" transform="translate(-10.646 -14.892)"/>
            </g>
          </g>
          <g id="Group-9">
            <mask id="-speedometer-o" fill="#fff">
              <use xlink:href="#-speedometer-n"/>
            </mask>
            <use fill="#4A47D5" xlink:href="#-speedometer-n"/>
            <g fill="#4A47D5" mask="url(#-speedometer-o)">
              <rect width="56" height="56" transform="translate(.354 .108)"/>
            </g>
          </g>
        </g>
      </g>
    </g>
  </g>
</svg>
